<?xml version="1.0" encoding="UTF-8"?><svg id="Layer_2" xmlns="http://www.w3.org/2000/svg" viewBox="0 0 405.21 343.23"><defs><style>.cls-1{fill:#fff;}.cls-2{fill:#1c1c1b;}</style></defs><g id="Layer_1-2"><g><g><path class="cls-2" d="M404.96,196.87l-19.58,7.71c-4.38,1.91-9.9,4.2-12.59,8.27-.71,1.05-.23,3.03,1.18,4.82,2.92,3.79,8.62,6.08,12.61,8.38l-7.59,1.86c-5.18,1.39-12.17,3.67-15.45,7.83-2.59,3.93-.24,8.97,2.28,12.42,2.61,3.1,4.08,5.08,6.23,7.75l-7.39-1.08c-6.83-.89-14.1-.66-20.83,.94-6.62,1.61-13.15,5.04-16.71,11.01-3.12,5.33-.78,10.26,3.7,14.45l-2.24,.4c-8.6-7.77-6.93-17.04,3.6-25.07,7.82-5.57,17.52-7.42,26.91-7.78-2.04-3.64-3.23-7.82-2.37-12.02,1.37-6.71,8.3-10.51,14.91-12.85-.84-.77-1.64-1.61-2.39-2.55-4.96-6.5-2.69-11.66,1.89-15.59-2.44,.03-4.89-.01-7.37-.14-7.49-.66-16.06-1.37-21.58-7.47-3.66-4.18-2.75-10.18,.27-14.07,4.14-5.46,9.93-9.02,15.82-12.14-7.56-1.26-14.74-4.26-19.62-10.46-8.83-11.31-1.18-23.91,7.38-32.49,1.4-1.42,2.84-2.78,4.31-4.09-9.07,1.91-18.96,2.73-26.02,.71-5.84-1.67-8.92-7.21-7.43-12.81,1.1-3.6,3.39-6.64,6.24-9.08-7.39,.22-14.77-.16-22.05-1.97-12.75-3.08-13.63-14.35-10.75-24.67-.46,.25-.91,.52-1.38,.76-19.11,10.16-43.41,5.17-48.26-18.14-.67-3.21-1.01-6.45-1.01-9.67,0-4.17,.56-8.31,1.69-12.35,3,21.04,9.86,39.41,34.88,35.12,9.08-1.51,18.15-6.1,26.6-9.69-3.4,6.99-7.85,15.22-7.9,22.95-.04,2.57,.49,4.94,1.77,6.56,1.4,1.86,3.69,2.69,5.99,3.36,2.57,.73,5.39,1.12,8.23,1.39,8.62,.72,17.49,.3,26.08-.59l8.31-5.59-6.24,11.03c-2.01,3.64-5.04,7.31-7.2,10.75,5.29,.72,10.74,.53,16.44,.77,5.33,.16,10.76,.25,16.23,.79l13.96-2.13-11.91,7.64c-9.12,6.04-29.4,21.27-25.32,33.86,2.75,7.82,11.34,11.16,19.1,12.29,3.29,.48,6.87,.68,10.13,.49l18.83-3.2-17.43,8.96c-6.47,3.47-22.68,11.67-24.29,18.89,.13,3.22,4.61,4.36,7.39,5.28,9.3,2.34,19.38,2.31,29.02,2.16l20.92-1.91Zm-74.59-80.81c.03-.06,.08-.21,.09-.43-.1,.31-.14,.49-.09,.43Zm-1.82-3.71s.03,.01,.04,.01c-.02-.01,0-.01-.02-.02,0,0-.05,0-.02,.01Z"/><path class="cls-1" d="M363.76,205.63c2.48,.13,4.93,.17,7.37,.14-4.58,3.93-6.85,9.09-1.89,15.59,.75,.94,1.55,1.78,2.39,2.55-6.61,2.34-13.54,6.14-14.91,12.85-.86,4.2,.33,8.38,2.37,12.02-9.39,.36-19.09,2.21-26.91,7.78-10.53,8.03-12.2,17.3-3.6,25.07,1.24,1.12,2.69,2.2,4.35,3.25-5.22-1.82-10.53-3.41-15.9-4.82-16.76-4.16-39.7-7.74-56.19-1-.82,.34-1.84,.9-2.64,1.25-.66,.38-1.94,1.2-2.59,1.6-14.9,10.59-23.11,28.38-24.92,46.27-5.93-5.35-12.39-9.92-19.44-13.84-10.36-5.71-22.66-9.9-34.73-7.85-16.81,3.11-32.98,13.97-45.3,25.97-4.35-11.71-10.63-23.72-20.96-30.81-12.26-7.67-29.08-3.69-41.98,.03-2.05,.64-4.07,1.31-6.08,2.04,1.14-7.49,1.1-16.51-5.65-20.16-4.76-2.17-9.29-.33-13.85,.95-4.04,1.39-7.96,3.01-11.8,4.76,12.98-12.61,25.41-28.07,20.39-36.2-3.7-7.18-12.56-7.98-19.4-5.13,3.08-2.02,5.96-4.39,8.49-7.16,12.66-13.7,3.71-29.86-10.61-36.94,7.46-5.54,12.47-14.32,13.03-23.65,.52-8.42-3.62-16.22-9-22.3-1.02-1.14-2.07-2.24-3.16-3.28,11.68,1.66,24.51,1.06,33.09-5.92,9.02-8.35,10.35-22.03,8.87-33.56-.29-2.07-.65-4.07-1.12-6.05,18.42,4.04,36.66-4.49,29.22-26.07-1.91-5.24-4.79-9.98-8.54-14.02,9.04,4.07,19.28,4.46,28.99,2.56,11.25-2.32,21.87-8.89,28.96-18.01l2.3-2.88,2.13-3,1.05-1.51c6.23-9.56,11.04-20.16,13.63-31.28,5.32,13.1,12.63,27.46,23.23,35.66,2.8,2.12,6.2,3.67,9.73,4.13,3.33,.26,6.98-.28,10.27-.84,10.96-2.33,21.18-8.23,28.92-16.13-1.13,4.04-1.69,8.18-1.69,12.35,0,3.22,.34,6.46,1.01,9.67,4.85,23.31,29.15,28.3,48.26,18.14,.47-.24,.92-.51,1.38-.76-2.88,10.32-2,21.59,10.75,24.67,7.28,1.81,14.66,2.19,22.05,1.97-2.85,2.44-5.14,5.48-6.24,9.08-1.49,5.6,1.59,11.14,7.43,12.81,7.06,2.02,16.95,1.2,26.02-.71-1.47,1.31-2.91,2.67-4.31,4.09-8.56,8.58-16.21,21.18-7.38,32.49,4.88,6.2,12.06,9.2,19.62,10.46-5.89,3.12-11.68,6.68-15.82,12.14-3.02,3.89-3.93,9.89-.27,14.07,5.52,6.1,14.09,6.81,21.58,7.47Z"/><path class="cls-2" d="M339.28,287.23c4.76,1.87,9.44,3.97,13.99,6.36-19.11-2.1-37.54-5.13-56.47-6.28-8.82-.49-18.02-.77-26.62,1.19-5.63,1.13-9.66,3.95-13.64,7.68-9.67,9.1-15.47,21.79-19.14,34.52-.42,1.44-.8,3-1.13,4.35l.59,5.42-5.5-3.36c-14.66-8.62-35.79-21.52-52.99-19-16.94,3.21-31.94,13.05-46.42,22.09l-4.33,2.78-.52-4.19c-3.94-11.61-9.76-24.89-20.09-32.1-4.47-2.89-9.61-3.46-15-3.36-13.15,.51-26.13,5-38.11,10.2,1.1-4.66,2.64-9.87,2.78-14.64,.1-4.52,.05-11.17-5.77-10.27-2.32,.36-4.16,.92-6.35,1.59-12.44,4.3-24.3,10.91-35.61,17.67l-3.56-4.8c4.89-5.41,9.92-10.73,14.88-16.03s9.9-10.6,14.46-16.04c3.31-4.2,7.38-8.59,8.83-13.56,.01-.08,.02-.14,.05-.01,.06,.12-.01-.09-.05-.2-.72-2.51-2.91-3.73-5.54-4.61-3.03-1.02-6.66-1.52-10.56-2.08,.68-.55,1.42-1.06,2.21-1.51,.65-.47,1.29-.96,1.94-1.46l.28,.36c6.84-2.85,15.7-2.05,19.4,5.13,5.02,8.13-7.41,23.59-20.39,36.2,3.84-1.75,7.76-3.37,11.8-4.76,4.56-1.28,9.09-3.12,13.85-.95,6.75,3.65,6.79,12.67,5.65,20.16,2.01-.73,4.03-1.4,6.08-2.04,12.9-3.72,29.72-7.7,41.98-.03,10.33,7.09,16.61,19.1,20.96,30.81,12.32-12,28.49-22.86,45.3-25.97,12.07-2.05,24.37,2.14,34.73,7.85,7.05,3.92,13.51,8.49,19.44,13.84,1.81-17.89,10.02-35.68,24.92-46.27,.65-.4,1.93-1.22,2.59-1.6,.8-.35,1.82-.91,2.64-1.25,16.49-6.74,39.43-3.16,56.19,1,5.37,1.41,10.68,3,15.9,4.82-1.66-1.05-3.11-2.13-4.35-3.25l2.24-.4c2.38,2.22,5.37,4.24,8.46,6Z"/><path class="cls-2" d="M241.37,37.69c-7.74,7.9-17.96,13.8-28.92,16.13-3.29,.56-6.94,1.1-10.27,.84-3.53-.46-6.93-2.01-9.73-4.13-10.6-8.2-17.91-22.56-23.23-35.66-2.59,11.12-7.4,21.72-13.63,31.28l-1.05,1.51-2.13,3-2.3,2.88c-7.09,9.12-17.71,15.69-28.96,18.01-9.71,1.9-19.95,1.51-28.99-2.56,4.74-1.11,9.22-2.18,13.55-3.4,13.11-3.75,26.41-8.87,34.93-19.85,1.05-1.2,3.08-3.85,4.04-5.14,7.27-9.77,13.07-20.58,17.91-31.76l1.31-3.1c.22-.52,.43-1.04,.62-1.56l.31-.77,.15-.38,.04-.1s0,.02,.01-.05c.23-1.33,1.63-2.54,2.9-2.63,1.79,.04,2.91,1.26,3.22,2.93,2.26,8.13,5.12,16.16,8.64,23.83,4.67,9.64,12.31,24.37,24.24,25.39,13.77,.45,27.18-5.53,37.34-14.71Z"/><path class="cls-2" d="M100.7,83.01c7.44,21.58-10.8,30.11-29.22,26.07,.47,1.98,.83,3.98,1.12,6.05,1.48,11.53,.15,25.21-8.87,33.56-8.58,6.98-21.41,7.58-33.09,5.92,1.09,1.04,2.14,2.14,3.16,3.28,5.38,6.08,9.52,13.88,9,22.3-.56,9.33-5.57,18.11-13.03,23.65,14.32,7.08,23.27,23.24,10.61,36.94-2.53,2.77-5.41,5.14-8.49,7.16l-.28-.36c8.32-6.63,15.74-16.85,9.99-27.13-3.68-7.2-11.58-11.44-19.25-13.15l-7.05-.78c3.79-2.93,8.93-6.38,11.96-9.97,4.89-5.53,7.99-12.89,7.13-20.32-.75-5-3.38-9.4-6.48-13.43-3.28-4.18-7.37-8.15-11.48-11.47L.25,143.65c11.99,1.33,27.45,3.92,39.28,3.25,6.24-.4,13.22-1.15,18.16-5.19,4.18-4.21,5.8-10.02,6.66-15.9,1.22-8.35,.25-17.25-.71-25.64l4.1,1.62c4.94,.06,10.07,.14,14.71-.44,4-.57,8.45-1.49,10.91-4.57,5.07-7.29,1.1-19.58-1.2-27.79,3.75,4.04,6.63,8.78,8.54,14.02Z"/></g><g><path class="cls-2" d="M126.33,167.11c-3.03-2.6-5.53-5.19-7.64-7.98-3.89,3.46-8.51,6.2-14.18,9.09l-2.16-2.26c5.82-4.28,11.88-9.42,15.24-15.67-3.13,.29-6.83,.34-9.28,.34-1.35,0-3.41-.34-4.42-2.31l4.37-4.04c1.59,1.35,3.56,1.39,6.15,1.39,3.08,0,7.69-.1,12.07-.67l1.39,1.44c-1.59,3.51-3.46,6.4-5.53,8.94,2.36,2.21,4.86,4.09,8.32,6.11l-4.33,5.63Zm14.23,.19l.91,.58-.1,3.37c-.1,3.46-.24,7.31-.43,9.86l-4.57,4.18h-2.64c.29-4.33,.38-7.69,.48-12.65-4.95,.29-12.16,.53-16.78,.53-1.88,0-4.28-.43-4.9-2.4l4.33-3.8c.87,1.11,2.79,1.2,5.05,1.2,6.83,0,14.57,0,18.65-.87Zm-4.76-27.89c1.73,1.01,3.51,1.97,6.01,2.84v20.91l-4.28,3.17h-2.93v-10.39l-3.46,.05c-1.73,.05-3.22,.1-5.53,.24l-.43-.96c.87-1.35,1.88-3.17,2.79-4.14,1.64,.24,2.6,.29,3.85,.29l2.79-.05v-6.2c-1.39-1.11-2.5-2.26-3.61-3.8l4.81-1.97Z"/><path class="cls-2" d="M193.07,152.54l-1.68,5.67c-.1,.24-.39,.29-.67,.29-.67,0-1.78,0-3.37-.05l-1.83,.05v5.14l-4.28,2.5h-2.93v-6.35c-4.76,3.41-11.64,6.3-18.37,6.3-3.17,0-7.69-.53-9.28-2.31,.53-1.35,1.06-2.93,1.73-4.18v-9.23c-1.87-.1-3.89-.48-4.57-2.36l4.33-3.7c.87,1.11,2.79,1.15,4.52,1.15l14.9-.14c1.11,0,2.31-.24,3.32-.67l.39,.58-1.68,4.57c-.15,.34-.29,.48-.58,.48l-13.51,.1v9.52c.67,.05,1.49,.1,2.55,.1,5.29,0,11.01-1.39,16.25-4.38v-10.43c-1.39-1.11-2.5-2.26-3.61-3.8l4.81-1.97c1.73,1.01,3.51,1.97,6.01,2.84v10.1l4.23-.05c1.01,0,2.07-.1,2.93-.34l.38,.58Zm-7.84,22.79c0,5.72-5.38,9.9-13.46,9.9s-11.92-3.8-11.92-9.33c0-2.07,.34-3.08,1.35-4.71l3.89-.48,2.12-3.41c1.35-.67,3.65-1.01,6.3-1.01,7.89,0,11.73,3.51,11.73,9.04Zm-6.83,.63c0-3.37-1.49-4.9-5.96-4.9-2.5,0-3.37,.43-4.47,1.06-.96,1.01-1.3,2.16-1.3,4.04,0,2.98,1.92,4.38,5.82,4.38s5.91-1.44,5.91-4.57Z"/><path class="cls-2" d="M221.11,150.33c.77,0,1.92-.29,3.08-.67l.39,.58-1.68,4.28c-.14,.34-.29,.48-.58,.48l-9.76,.14-1.92,1.92v.34c.82-.1,1.92-.14,3.03-.14,4.37,0,7.98,3.12,7.98,8.65,0,6.01-4.76,9.86-11.73,9.86s-10.53-3.41-10.53-9.23c0-2.31,.34-4.18,1.25-5.72l3.89-.39c1.44-1.06,3.85-3.41,5.53-5.24l-8.99,.14c-2.12,.05-5.19,0-5.96-2.36l4.33-3.56c.87,1.11,3.22,1.2,4.52,1.2l17.16-.29Zm-18.27-4.47l4.09-4.23c1.11,1.35,2.69,2.31,5.82,2.31,1.87,0,2.98-.1,4.52-.24l.14,3.32c-2.74,1.11-7.02,1.49-9.57,1.49-2.84,0-4.23-1.01-5-2.64Zm7.74,16.01c-1.64,0-2.45,.29-3.46,.82-.87,1.25-1.01,2.69-1.01,4.09,0,2.98,1.54,4.33,4.37,4.33,3.27,0,4.47-1.44,4.47-4.28,0-3.17-1.3-4.95-4.37-4.95Zm18.51-22.45c1.73,1.01,3.51,1.97,6.01,2.84v37.79l-4.28,4.52h-2.93v-39.38c-1.39-1.11-2.5-2.26-3.61-3.8l4.81-1.97Z"/><path class="cls-2" d="M285.11,160.86l-2.16,4.38c-.19,.34-.29,.48-.58,.48h-3.08l-30.24,.1c-2.45,0-4.95,.58-7.79,1.3l-.82-.82c1.54-1.97,2.89-3.75,4.86-5.38,1.83,.39,3.65,.39,5.53,.39l29.91-.19c.77,0,2.6-.29,3.99-.82l.38,.58Zm-15.91-12.36c.1-.82,.19-1.63,.19-2.36-4.9,.19-11.59,.24-16.06,.24-1.88,0-3.94-.48-4.57-2.45l4.33-3.22c.87,1.11,2.79,1.2,5.05,1.2,10.39,0,14.38-.1,17.41-.77l.91,.58-.1,1.78c-.1,1.25-.19,2.5-.48,3.85l-3.99,1.11h1.78c.77,0,2.26-.1,3.22-.29l.38,.43-1.44,3.41c-.14,.34-.29,.48-.58,.48l-17.12,.1v1.97c.48,.1,1.11,.14,1.64,.14l15.43-.19c.77,0,1.35-.1,2.21-.34l.29,.43-1.59,4.28c-.05,.14-.24,.19-.34,.19l-20.29,.14c-2.74,0-4.52-.48-5.77-1.73,.48-1.3,.96-2.55,1.63-3.89v-1.06c-1.73-.1-3.46-.53-4.04-2.31l4.33-2.64c.87,1.01,2.79,1.06,4.71,1.06l12.84-.14Zm9.09,30.24l.67,2.16c-4.71,3.75-10.87,4.62-16.78,4.62-4.66,0-8.99-.67-12.12-4.37l2.31-3.03c-1.63-.1-2.74-.53-3.27-2.07l3.13-3.03c.87,1.11,2.26,1.3,3.89,1.3l12.98-.1c.1-.77,.19-1.68,.24-2.5-4.81,.24-11.16,.43-15.34,.43-1.87,0-3.94-.48-4.57-2.45l4.33-2.74c.87,1.11,2.79,1.2,5.05,1.2,1.49,0,9.09-.05,10.58-.1,1.59-.05,4.62-.24,6.92-.77l.91,.58-.1,1.59c-.05,.82-.29,2.26-.67,3.46l-4.37,1.25h.29c1.3,0,3.61-.1,4.66-.34l.43,.43-1.44,3.22c-.19,.43-.53,.43-1.01,.43h-3.51l-12.65,.1c-.24,.63-.43,1.2-.53,1.54,1.64,1.01,4.76,1.35,7.6,1.35,4.9,0,8.03-.1,12.36-2.16Zm-21.4-25.15s.05,.1,.05,.14l-.05-.14Z"/><path class="cls-2" d="M114.53,230.68l-2.16,5.43c-.14,.34-.29,.48-.58,.48h-3.08l-30.24,.1c-2.45,0-4.95,.58-7.79,1.3l-.82-.82c1.25-1.97,2.89-4.81,4.86-6.44,1.83,.39,3.65,.39,5.53,.39l10.34-.05c-.05-.34-.05-.67-.05-.96v-1.44c-.48-1.01-1.25-2.36-2.12-3.22,2.02-1.39,5.67-2.12,7.98-2.16,.58,.91,.96,2.21,1.2,3.46,.1,.48,.1,.96,.1,1.39v2.88l12.45-.1c.77,0,2.6-.29,3.99-.82l.38,.58Zm-34.91-21.92c-1.49-.19-2.84-.82-3.32-2.36l4.33-3.46c.87,1.11,2.79,1.2,5.63,1.2,7.6,0,14.66,0,20-.87l.91,.58-.1,3.03c-.05,1.88-.43,6.35-.91,9.04l-5.38,1.44,4.13-.05c.77,0,1.35-.1,2.21-.34l.29,.43-1.59,4.37c-.05,.14-.24,.19-.34,.19h-3.08l-17.93,.14c-2.74,0-4.52-.48-5.77-1.73,.48-1.3,.96-2.55,1.63-3.89l-.72-7.74Zm19.66,8.61c.39-3.56,.48-6.2,.53-8.99-3.61,.19-8.65,.34-12.98,.43l.29,8.41c.58,.24,1.35,.29,2.07,.29l10.1-.14Z"/><path class="cls-2" d="M162.13,230.44l-2.16,5.43c-.14,.34-.29,.48-.58,.48h-3.08l-30.24,.1c-2.45,0-4.95,.58-7.79,1.3l-.82-.82c1.25-1.97,2.89-4.81,4.86-6.44,1.83,.38,3.65,.38,5.53,.38l29.91-.19c.77,0,2.6-.29,3.99-.82l.38,.58Zm-15.29-18.03c.15-1.63,.24-3.03,.29-4.23-5.29,.24-12.98,.38-17.45,.38-1.88,0-3.94-.48-4.57-2.45l4.33-3.61c.87,1.11,2.79,1.2,5.05,1.2,11.54,0,15.72-.1,18.75-.77l.91,.58-.1,2.36c-.05,1.25-.19,3.89-.48,5.24l-4.52,1.3,2.31-.05c.77,0,2.36-.1,3.32-.29l.38,.43-1.63,3.89c-.14,.34-.29,.48-.58,.48l-18.37,.1v4.04c.48,.1,1.11,.15,1.63,.15l17.26-.19c.77,0,1.35-.1,2.21-.34l.29,.43-1.59,4.66c-.05,.14-.24,.19-.34,.19l-22.12,.14c-2.74,0-4.52-.48-5.77-1.73,.48-1.3,.96-2.55,1.63-3.89v-3.51c-1.73-.1-3.41-.53-3.99-2.31l4.33-3.27c.87,1.11,2.79,1.2,4.71,1.2l14.09-.14Zm-13.61,7.65s0,.05,.05,.05l-.05-.05Z"/><path class="cls-2" d="M209.73,218.61l-2.16,5.43c-.14,.34-.29,.48-.58,.48h-3.08l-30.24,.1c-2.45,0-4.95,.58-7.79,1.3l-.82-.82c1.25-1.97,2.89-4.81,4.86-6.44,1.83,.38,3.65,.38,5.53,.38l29.91-.19c.77,0,2.6-.29,3.99-.82l.38,.58Zm-34.33-12.79c-1.39-1.11-2.5-2.26-3.61-3.8l5-1.97c1.54,1.01,3.46,1.97,5.77,2.88v8.03c.43,.1,.91,.1,1.35,.1l16.01-.19c.77,0,1.35-.1,2.21-.34l.29,.43-1.59,4.71c-.05,.14-.24,.19-.34,.19h-3.08l-17.89,.14c-2.74,.05-4.52-.48-5.77-1.73,.53-1.3,.96-2.36,1.63-3.7v-4.76Zm28.32,28.51l.67,2.79c-4.42,3.61-12.5,5.48-18.66,5.48s-10.24-1.83-13.37-5.43c2.55-3.27,5.19-7.6,6.83-10.14l5.19,.63c-1.3,2.5-2.36,4.76-3.37,6.92,2.21,1.64,5.34,2.31,9.81,2.31,4.13,0,8.8-.48,12.89-2.55Zm-22.69-24.38c.05,.1,.1,.24,.14,.29l-.14-.29Z"/><path class="cls-2" d="M253.44,226.69l-5.34,5.1c-3.41-3.51-6.3-7.21-8.46-11.01-3.94,4.9-8.99,9.09-13.75,11.78l-1.88-1.68c6.88-6.68,12.84-15.39,14.09-23.13-1.44-1.06-2.79-1.97-3.99-3.22l3.03-2.6c2.88,1.54,6.11,2.84,8.94,3.85l.29,.91c-.43,3.22-1.68,6.44-3.51,9.47,2.84,3.7,6.25,7.02,10.58,10.53Zm16.92-11.16l-1.68,5.67c-.1,.24-.39,.29-.67,.29-.67,0-1.78,0-3.37-.05l-1.83,.05v16.25l-4.28,4.52h-2.93v-39.38c-1.39-1.11-2.5-2.26-3.61-3.8l4.81-1.97c1.73,1.01,3.51,1.97,6.01,2.84v15.39l4.23-.05c1.01,0,2.07-.1,2.93-.34l.38,.58Z"/><path class="cls-2" d="M317.97,211.16l-1.68,5.67c-.1,.24-.39,.29-.67,.29-.67,0-1.78,0-3.37-.05l-1.83,.05v4.9l-4.28,3.17h-2.93v-5.38c-4.9,2.98-11.68,5.14-18.37,5.14-2.74,0-7.21-.53-8.8-2.31,.53-1.35,1.06-2.6,1.73-3.85v-3.65c-1.78-.1-3.65-.48-4.28-2.36l4.33-2.98c.87,.96,2.79,1.01,4.71,1.01l8.85-.1c.14-1.44,.19-2.79,.19-3.99-3.65,.29-7.4,.48-11.83,.48-1.87,0-3.94-.48-4.57-2.45l4.33-3.41c.87,1.11,2.79,1.2,5.72,1.2,4.52,0,9.33-.19,12.36-.87l.91,.58v2.02c-.05,1.25-.24,3.32-.53,4.66l-4.28,1.73h2.07c.82,0,2.4-.1,3.37-.29l.39,.43-1.59,3.75c-.14,.34-.29,.48-.58,.48h-2.98l-9.71,.1v3.94c.62,.05,1.39,.1,2.31,.1,5.38,0,11.25-.91,16.25-3.32v-12.98c-1.39-1.11-2.5-2.26-3.61-3.8l4.81-1.97c1.73,1.01,3.51,1.97,6.01,2.84v11.01l4.23-.05c1.01,0,2.07-.1,2.93-.34l.39,.58Zm-11.2,26.2c1.83-.14,3.51-.43,4.33-.67l.38,.58-2.36,4.42c-.1,.14-.24,.19-.34,.19-2.21,.34-4.33,.43-7.6,.43h-11.15c-2.4,0-4.62-.67-5.87-1.92,.53-1.2,.96-2.45,1.63-3.37l-.63-5.72c-1.39-.24-2.6-.87-3.08-2.31l4.33-3.41c.87,1.11,2.79,1.2,5.53,1.2,1.49,0,8.32-.05,9.81-.1,1.59-.05,5.24-.29,7.84-.77l.91,.58-.1,2.79c-.1,1.87-.34,4.09-.72,6.44l-2.93,1.63Zm-6.2,.24c.77,0,1.73,0,2.74-.05,.19-2.31,.24-4.09,.29-6.4-3.41,.15-7.84,.24-11.73,.24l.24,5.91c.58,.24,1.35,.29,2.07,.29h6.39Z"/></g></g></g></svg>