<?xml version="1.0" encoding="UTF-8"?><svg id="Layer_2" xmlns="http://www.w3.org/2000/svg" viewBox="0 0 128.73 41.82"><defs><style>.cls-1{fill:#1c1c1b;}</style></defs><g id="Layer_1-2"><g><path class="cls-1" d="M41.11,20.8l-1.99,5c-.13,.31-.27,.44-.53,.44h-7.26v11.77l-3.89,3.54h-2.3v-15.27h-7.26v10.62l-3.89,3.54h-2.3v-14.12h-3.76c-2.26,0-4.56,.53-7.17,1.2l-.75-.75c1.15-1.81,2.65-4.43,4.47-5.93,1.68,.35,3.36,.35,5.09,.35l27.52-.18c.71,0,2.39-.27,3.67-.75l.35,.53ZM8.58,10.13c0-1.73,.44-3.19,1.28-4.51l3.94-.44,1.95-3.1c1.24-.62,3.05-.97,5.84-.97,8.01,0,11.42,3.32,11.42,8.32,0,5.84-4.87,9.34-12.88,9.34s-11.55-3.5-11.55-8.63Zm6.77,.18c0,2.35,1.37,3.76,5.44,3.76,3.76,0,5.53-1.11,5.53-4.07,0-2.43-1.37-4.12-5.71-4.12-2.39,0-3.32,.35-4.25,.88-.71,.97-1.02,2.26-1.02,3.54Z"/><path class="cls-1" d="M69.57,28.58l-16.9,1.06c-2.26,.09-4.51,.75-7.12,1.59l-.75-.71c1.2-1.95,2.57-3.89,4.16-5.31,1.68,.22,3.41,.13,5.13,.04l2.35-.13c-.13-.66-.18-1.28-.18-1.86-4.69-.27-7.88-1.95-7.88-5.22,0-1.99,.71-3.63,1.19-4.03l4.34-.27c1.11-.66,2.08-1.42,3.67-2.74l-7.17,.04c-1.95,0-4.78,0-5.49-2.17l3.98-2.52c1.06,1.11,2.57,1.11,4.16,1.11l14.6-.18c.71,0,1.77-.27,2.83-.62l.35,.53-1.55,3.32c-.13,.31-.13,.44-.53,.44l-9.43,.04-.88,.75v.31c.93-.04,2.61-.04,2.92-.04,3.5,0,6.9,1.11,6.9,4.82s-1.86,5.53-6.24,6.19v1.73l9.69-.62v1.42l-2.17,3.01ZM51.6,4.25l3.63-2.88c1.28,1.46,2.12,1.68,4.78,1.68,1.86,0,3.98-.09,5.4-.22l.13,2.48c-.97,1.15-5.84,1.28-8.67,1.28-3.5,0-4.29-.49-5.27-2.34Zm28.67,29.96l.62,2.57c-4.12,3.41-11.42,5.04-16.9,5.04s-9.38-1.77-12.12-4.96c2.08-2.7,3.23-4.47,4.78-6.68l4.78,.71c-.58,1.28-1.11,2.26-1.68,3.5,2.12,1.59,5.09,2.17,8.98,2.17s7.88-.49,11.55-2.35Zm-22.39-14.78c4.2,0,5-.44,5-2.17,0-1.46-1.33-1.81-5.93-1.81-.75,0-2.26,.04-2.61,.66-.18,.27-.31,.97-.31,1.59,0,1.11,.97,1.73,3.85,1.73Zm28.19-3.41l-1.55,5.22c-.09,.22-.35,.26-.62,.26-.62,0-1.64,0-3.1-.04l-1.73,.04v5.97l-3.85,4.16h-2.57V5.31c-1.28-1.02-2.3-2.08-3.32-3.5l4.2-1.81c1.59,.93,3.23,1.81,5.53,2.61V15.84l3.94-.04c.93,0,1.9-.09,2.7-.31l.35,.53Z"/><path class="cls-1" d="M128.73,20.27l-1.99,5c-.13,.31-.27,.44-.53,.44h-2.83l-9.65,.04v4.34l-4.03,2.35h-2.34v-6.68l-11.82,.04c-2.26,0-4.56,.53-7.17,1.19l-.75-.75c1.15-1.81,2.65-4.42,4.47-5.93,1.68,.35,3.36,.35,5.09,.35l27.52-.18c.71,0,2.39-.27,3.67-.75l.35,.53Zm-35.27-3.27c5.75-2.21,11.86-5.8,15.93-8.81-4.2,.27-8.36,.31-10.49,.31-1.24,0-3.14-.31-4.07-2.12l4.03-3.54c1.46,1.24,3.27,1.28,5.66,1.28,3.32,0,11.77-.13,15.93-.71l1.28,1.33c-1.33,2.12-3.28,4.12-5.71,5.93,2.79,.97,5.8,1.77,9.6,2.74l-2.7,5.75c-4.12-1.68-8.14-3.32-11.55-5.53-4.78,2.57-10.66,4.47-17.08,5.4l-.84-2.04Zm29.51,17.21l.62,2.57c-4.07,3.32-11.55,5.04-17.3,5.04s-9.56-1.68-12.39-5c2.3-3.01,4.91-7.21,6.42-9.6l4.78,.53c-1.28,2.43-2.35,4.65-3.27,6.64,2.08,1.59,4.96,2.17,9.12,2.17,3.85,0,8.32-.44,12.04-2.35Z"/></g></g></svg>